<svg width="202" height="58" viewBox="0 0 202 58" fill="none" xmlns="http://www.w3.org/2000/svg">
<g clip-path="url(#clip0_754_4173)">
<path d="M66.4911 30.9135C68.6757 33.9272 70.8649 36.941 73.0541 39.9595C73.8872 41.0996 74.7296 42.2396 75.5765 43.3891C75.2942 43.7302 74.9332 43.5713 74.6324 43.5713C70.9713 43.5853 67.301 43.5713 63.6354 43.5853C63.3068 43.5853 62.9689 43.5246 62.6495 43.6741C61.9923 43.5339 61.3397 43.548 60.6871 43.7115C60.2706 43.5526 59.9281 43.291 59.6596 42.9312C54.9063 36.441 50.1437 29.9696 45.3626 23.5028C44.4138 22.2226 43.5853 20.8488 42.4653 19.6994C42.2894 19.4191 42.1367 19.12 41.9423 18.8537C40.1835 16.4473 38.4155 14.0457 36.6382 11.6393C36.7817 11.5973 36.9251 11.5692 37.0732 11.5505C40.2807 11.5505 43.4928 11.4945 46.6956 11.5645C50.315 11.6393 53.3003 13.0971 55.4895 16.0408C58.0767 19.5359 60.627 23.0589 63.2281 26.554C63.7604 27.2689 64.1445 28.1146 64.9267 28.6286C65.2877 29.507 65.9311 30.1799 66.4911 30.9135Z" fill="white"/>
<path d="M132.515 20.9421C133.667 21.0683 134.736 20.587 135.703 19.8861C136.199 19.517 136.541 19.503 136.944 19.9656C137.518 20.6291 138.119 21.2692 138.703 21.9187C139.082 22.3439 138.791 22.6383 138.494 22.9186C136.574 24.7082 134.287 25.4278 131.695 25.325C127.201 25.1427 123.725 21.7505 122.744 17.947C121.592 13.4568 124.179 8.13475 128.525 6.45265C131.982 5.11163 135.208 5.49011 138.175 7.76095C139.068 8.44781 139.059 8.69546 138.291 9.49446L138.226 9.55987C137.68 10.1206 137.212 10.8682 136.546 11.2093C135.759 11.6064 135.305 10.5551 134.597 10.3215C132.755 9.70939 130.978 9.59258 129.353 10.8028C127.567 12.1251 126.9 13.9847 127.122 16.1668C127.382 18.8535 129.714 21.1571 132.519 20.9468L132.515 20.9421Z" fill="white"/>
<path d="M17.4444 49.4117C15.2922 47.5007 13.751 45.127 12.3439 42.6553C12.2097 42.417 12.1264 42.16 11.8857 41.9964C10.8166 39.4546 9.89553 36.852 9.34013 34.1466C9.21053 32.2075 8.90506 30.2871 8.97449 28.334C9.19202 21.7037 11.2794 15.7789 15.4866 10.6438C20.314 4.75645 26.4882 1.19599 34.0185 0.256812C43.1734 -0.87861 51.1666 1.75669 57.8638 8.19075C57.9656 8.29822 58.0675 8.41036 58.16 8.52717C57.8407 8.92901 57.3593 9.18133 57.1325 9.6626C50.7685 3.5229 43.2197 0.80817 34.449 1.82678C27.9276 2.58373 22.4337 5.48536 17.9211 10.2794C14.8942 13.4567 12.7975 17.1667 11.6173 21.4046C10.5852 25.1146 10.1593 28.8947 10.8906 32.7355C11.2702 36.039 12.2838 39.1369 13.9361 42.0245C14.1999 42.5291 14.4452 43.0431 14.7322 43.529C15.7782 45.3046 17.1667 46.8091 18.4765 48.3698L17.4398 49.4117H17.4444Z" fill="white"/>
<path d="M87.4482 15.5408C87.4482 12.7092 87.4713 9.86366 87.4297 7.04145C87.4204 6.24713 87.6842 5.99481 88.4757 6.00415C91.8914 6.04154 95.3071 6.03219 98.7229 6.00415C99.2829 6.00415 99.5606 6.149 99.5421 6.77045C99.5143 7.52272 99.5421 8.27967 99.5652 9.03662C99.593 9.7375 99.2783 9.99916 98.5748 9.98514C96.6586 9.94776 94.7379 9.97112 92.8171 9.95711C91.5767 9.94309 91.5767 9.92907 91.5767 11.2047C91.5767 11.8448 91.6045 12.4849 91.5674 13.1251C91.5304 13.7652 91.8127 13.9755 92.419 13.9708C94.039 13.9428 95.6635 13.9708 97.2835 13.9428C98.0101 13.9287 98.3526 14.153 98.2647 14.952C98.1999 15.5875 98.1999 16.2276 98.2647 16.8678C98.3526 17.7041 98.061 18.0312 97.2048 18.0032C95.6034 17.9611 93.9927 18.0219 92.3867 17.9752C91.7341 17.9611 91.5535 18.1994 91.5674 18.8209C91.5952 20.5871 91.5674 22.3533 91.5859 24.1289C91.5998 24.8578 91.3268 25.1942 90.5677 25.1428C89.9984 25.1007 89.4199 25.1428 88.846 25.1428C87.4852 25.1428 87.4482 25.1101 87.4482 23.7738C87.4482 21.0263 87.4482 18.2835 87.4482 15.5408Z" fill="white"/>
<path d="M87.2724 40.1465V31.9229C87.2724 30.8015 87.3696 30.708 88.4433 30.708C90.6279 30.708 92.7986 30.6987 94.9832 30.7267C97.7139 30.7548 99.6532 32.7826 100.273 34.7171C101.167 37.4738 99.7736 40.025 97.7648 41.3567C96.6402 42.0856 96.654 42.0716 97.3344 43.3238C98.2693 45.048 99.1765 46.8002 100.088 48.5337C100.468 49.2673 100.25 49.5476 99.4311 49.6504C98.4128 49.7859 97.9037 49.286 97.4964 48.4403C96.6355 46.6086 95.7006 44.8004 94.8397 42.9594C94.5805 42.408 94.2704 42.1931 93.6641 42.2258C92.5718 42.2819 91.4795 42.2819 90.3872 42.2258C89.6051 42.1838 89.3088 42.4267 89.3274 43.2444C89.3829 45.006 89.3181 46.7722 89.3644 48.5384C89.3875 49.3234 89.1098 49.6458 88.3323 49.6504C87.5547 49.6598 87.24 49.342 87.2492 48.5571C87.277 45.7582 87.2677 42.9547 87.2677 40.1512L87.2724 40.1465ZM89.4107 36.5767C89.4107 37.6094 89.4338 38.642 89.4107 39.6886C89.3921 40.2306 89.5634 40.4736 90.1327 40.4643C91.6786 40.4362 93.2244 40.4876 94.7703 40.4316C95.2609 40.4035 95.7237 40.2867 96.1681 40.0858C96.6124 39.8849 97.0058 39.6045 97.3483 39.2494C97.6908 38.899 97.9546 38.4971 98.1444 38.0439C98.3341 37.5907 98.4313 37.1187 98.4452 36.6234C98.4591 36.1328 98.3804 35.6609 98.2138 35.1983C98.0425 34.7358 97.7926 34.3246 97.464 33.9601C97.1354 33.5957 96.7512 33.306 96.3115 33.0957C95.8719 32.8854 95.409 32.7639 94.9184 32.7312C93.317 32.6331 91.7063 32.7032 90.1003 32.6845C89.6097 32.6845 89.406 32.8854 89.4246 33.3994C89.4384 34.4414 89.4246 35.5114 89.4246 36.5814L89.4107 36.5767Z" fill="white"/>
<path d="M159.789 15.569C159.789 12.7655 159.817 9.96664 159.775 7.16313C159.762 6.29871 160.035 5.93426 160.919 6.00902C161.645 6.05574 162.377 6.05574 163.103 6.00902C163.802 5.97631 164.071 6.24732 164.066 6.96689C164.043 11.3077 164.066 15.6578 164.029 19.9985C164.029 20.8957 164.297 21.1713 165.167 21.134C166.769 21.0779 168.38 21.1433 169.986 21.1059C170.777 21.0826 171.064 21.419 171.059 22.1853C171.045 25.685 171.258 25.0729 168.255 25.115C165.885 25.143 163.52 25.115 161.155 25.115C159.891 25.115 159.794 25.0168 159.789 23.7786V15.5643V15.569Z" fill="white"/>
<path d="M139.119 40.0947V32.0486C139.119 30.7263 139.142 30.7076 140.415 30.7076C143.442 30.7076 146.469 30.7263 149.496 30.6982C150.19 30.6982 150.704 30.7403 150.681 31.6234C150.658 32.5065 150.084 32.5345 149.436 32.5252C146.978 32.5159 144.52 32.5439 142.072 32.5065C141.355 32.4925 141.109 32.7168 141.132 33.4457C141.183 35.0624 141.216 36.6931 141.165 38.3145C141.142 38.9593 141.345 39.0994 141.924 39.0994C144.044 39.0761 146.164 39.1135 148.297 39.0807C149.005 39.0714 149.366 39.2676 149.38 40.048C149.394 40.8656 148.899 40.9077 148.311 40.9077C146.219 40.9077 144.127 40.9217 142.035 40.8984C141.396 40.8984 141.128 41.0572 141.142 41.7815C141.202 43.5243 141.202 45.2672 141.165 47.01C141.151 47.6782 141.41 47.8464 142.007 47.8417C144.46 47.8137 146.923 47.8184 149.371 47.809C150.014 47.809 150.69 47.6969 150.69 48.7061C150.69 49.7154 150.074 49.6173 149.399 49.6173C146.372 49.6033 143.34 49.6079 140.299 49.6173C139.23 49.6173 139.119 49.5285 139.119 48.4164V40.09V40.0947Z" fill="white"/>
<path d="M17.4443 49.4117L18.4811 48.3698C18.8467 48.4866 19.0457 48.8137 19.3142 49.0566C24.0814 53.4535 29.7095 55.9813 36.1383 56.257C46.5984 56.7102 54.8137 52.4489 60.6963 43.7113C61.3489 43.5477 62.0015 43.5337 62.6588 43.6786C58.3127 50.8275 52.1292 55.4767 43.9694 57.2756C36.291 58.9671 29.0708 57.6634 22.3921 53.4675C20.5731 52.3227 18.8375 51.0752 17.4443 49.4071V49.4117Z" fill="white"/>
<path d="M197.835 44.6504H194.738C193.85 44.6504 193.669 44.9962 194.062 45.8699C194.997 47.9352 197.159 48.7295 199.228 47.767C199.459 47.6876 199.672 47.5801 199.871 47.4446C200.537 46.8512 200.815 47.4212 201.13 47.8511C201.505 48.3604 201.144 48.5847 200.764 48.851C198.274 50.5425 194.923 50.1733 193.183 48.01C191.364 45.7391 191.563 41.8562 193.66 39.8985C195.261 38.4126 197.15 38.1556 199.149 38.9359C200.908 39.6275 202 41.3983 202 43.4169C202 44.5149 201.866 44.6411 200.741 44.6457H197.835V44.6504ZM196.997 43.1879V43.1973C197.839 43.1973 198.686 43.2113 199.529 43.1973C199.913 43.1973 200.255 43.1645 200.098 42.5711C199.732 41.2301 198.51 40.1928 197.15 40.1601C195.826 40.1274 194.34 41.1881 193.961 42.4263C193.775 42.9917 193.961 43.2113 194.558 43.1973C195.363 43.1692 196.182 43.1786 197.001 43.1786V43.1879H196.997Z" fill="white"/>
<path d="M108.378 44.6505H105.286C104.374 44.6505 104.281 44.7953 104.582 45.6691C105.323 47.7997 107.674 48.7529 109.798 47.7717C110.081 47.6642 110.349 47.5194 110.604 47.3512C111.196 46.8933 111.391 47.4259 111.673 47.7437C112.015 48.1221 111.909 48.4399 111.539 48.7483C110.058 49.9725 107.086 50.2902 105.337 49.2996C103.175 48.0708 102.416 46.0662 102.592 43.6739C102.754 41.4404 103.763 39.7023 105.906 38.8706C109.34 37.5249 112.788 40.0667 112.589 43.7347C112.557 44.3514 112.344 44.6878 111.654 44.6505C110.567 44.6224 109.479 44.6505 108.387 44.6505H108.378ZM107.558 43.188V43.1786C108.373 43.1786 109.187 43.1506 110.002 43.188C110.724 43.216 110.807 42.8796 110.613 42.2862C110.21 41.0666 108.891 40.0901 107.651 40.1415C106.313 40.1882 104.888 41.2395 104.541 42.3983C104.374 42.9543 104.541 43.1926 105.119 43.188C105.934 43.1786 106.744 43.188 107.558 43.188Z" fill="white"/>
<path d="M179.927 45.4638V48.6598C179.927 49.085 179.844 49.4775 179.367 49.5709C178.881 49.6691 178.548 49.5522 178.372 49.0336C178.15 48.3748 177.849 48.828 177.567 49.0102C176.345 49.8186 175.058 50.2111 173.628 49.5943C172.156 48.9635 171.615 47.7627 171.647 46.2348C171.684 44.7349 172.42 43.7069 173.776 43.1182C174.961 42.6136 176.197 42.6182 177.419 42.9126C177.965 43.0481 178.122 42.9126 178.145 42.3612C178.233 40.8333 177.502 40.0764 175.984 40.1792C175.146 40.2352 174.295 40.3147 173.508 40.6464C172.962 40.8754 172.73 40.6277 172.577 40.1465C172.425 39.6558 172.448 39.3007 172.989 39.1232C174.526 38.5999 176.1 38.3195 177.72 38.6466C178.872 38.8755 179.455 39.6979 179.677 40.7913C179.997 42.3472 179.913 43.9078 179.923 45.4591L179.927 45.4638ZM178.136 45.6694C178.104 45.2255 178.33 44.5854 177.655 44.3985C176.66 44.1274 175.623 43.9919 174.628 44.3985C173.767 44.7489 173.327 45.4264 173.327 46.3889C173.327 47.2907 173.809 47.8842 174.591 48.1972C176.118 48.8 178.15 47.3515 178.136 45.6694Z" fill="white"/>
<path d="M122.966 45.2066C122.966 46.4588 122.948 47.5569 122.966 48.6503C122.98 49.0848 122.948 49.4633 122.462 49.5848C122.045 49.6829 121.684 49.6268 121.518 49.1362C121.314 48.5428 121.036 48.739 120.652 49.0241C119.139 50.1361 117.227 50.1969 116.014 49.2203C114.853 48.2811 114.45 46.8046 114.922 45.1786C115.279 43.9497 116.625 42.9031 118.06 42.8003C118.935 42.7395 119.819 42.6694 120.675 42.9591C120.971 43.0573 121.184 43.0572 121.272 42.6694C121.578 41.2583 120.726 40.1603 119.301 40.2164C118.426 40.2491 117.546 40.2864 116.732 40.6649C116.264 40.8752 115.903 40.7864 115.723 40.2584C115.542 39.7304 115.556 39.3192 116.19 39.1043C117.551 38.6184 118.953 38.4455 120.393 38.5856C121.777 38.7305 122.61 39.5715 122.841 40.9873C123.087 42.4358 122.915 43.903 122.976 45.2113L122.966 45.2066ZM121.258 45.8701C121.258 45.2113 121.444 44.5338 120.587 44.3422C119.736 44.1506 118.847 44.0432 117.991 44.3048C117.241 44.5291 116.667 44.9777 116.505 45.8374C116.348 46.6457 116.477 47.3793 117.135 47.884C118.019 48.5615 118.991 48.3372 119.875 47.884C120.68 47.4634 121.504 46.9728 121.258 45.8748V45.8701Z" fill="white"/>
<path d="M9.32614 34.147C9.88617 36.857 10.8026 39.455 11.8717 41.9968H0.236046C0.194391 41.9968 0.148107 41.9267 0 41.8099L9.32614 34.147Z" fill="white"/>
<path d="M184.334 44.3751C184.334 43.3425 184.306 42.3052 184.347 41.2632C184.375 40.5764 184.093 40.3147 183.436 40.3848C182.871 40.4455 182.404 40.3661 182.431 39.5998C182.454 39.0438 182.649 38.698 183.241 38.7821C184.162 38.9176 184.426 38.4924 184.347 37.6467C184.297 37.1327 184.347 36.6141 184.334 36.0954C184.31 35.4086 184.709 35.203 185.306 35.1796C185.972 35.1516 186.12 35.5487 186.111 36.1188C186.092 36.787 186.143 37.4598 186.111 38.128C186.078 38.6233 186.291 38.7961 186.731 38.7915C187.458 38.7915 188.189 38.8055 188.916 38.7775C189.499 38.7541 189.763 39.0391 189.758 39.5858C189.749 40.1372 189.499 40.4315 188.92 40.4128C188.221 40.3848 187.527 40.4315 186.833 40.3848C186.315 40.3568 186.106 40.553 186.106 41.053C186.116 43.0014 186.106 44.9452 186.129 46.8983C186.143 47.8281 186.555 48.1225 187.486 47.9543C187.856 47.9216 188.198 47.8094 188.513 47.6225C189.203 47.1413 189.605 47.4964 189.929 48.1085C190.327 48.8374 189.735 49.0196 189.281 49.2205C188.337 49.6504 187.365 49.9681 186.31 49.8747C185.218 49.7766 184.491 49.1224 184.422 48.0244C184.352 46.8142 184.408 45.5947 184.408 44.3751H184.334Z" fill="white"/>
<path d="M156.749 49.8978C155.541 49.8978 154.453 49.5333 153.486 48.8138C152.907 48.3979 153.171 48.0148 153.449 47.5756C153.722 47.141 154.013 47.155 154.407 47.4587C154.976 47.8793 155.61 48.1503 156.309 48.2764C157.147 48.4587 158.105 48.0568 158.355 47.4541C158.642 46.7766 158.304 46.0663 157.392 45.529C156.457 44.9776 155.453 44.5244 154.569 43.8983C152.875 42.6974 152.615 40.8425 153.851 39.5155C154.351 38.9921 154.967 38.6838 155.684 38.6043C156.864 38.4127 157.98 38.595 159.04 39.1557C159.489 39.394 159.859 39.6837 159.553 40.3051C159.271 40.8798 158.882 41.0621 158.313 40.7537C157.628 40.3799 156.901 40.221 156.128 40.2724C155.647 40.3004 155.221 40.4873 155.036 40.9639C154.837 41.4732 155.022 41.9218 155.425 42.2722C156.202 42.9357 157.17 43.2348 158.04 43.7254C158.975 44.2534 159.882 44.8094 160.238 45.9121C160.826 47.7438 159.512 49.5614 157.415 49.8651C157.193 49.8885 156.971 49.8931 156.749 49.8931V49.8978Z" fill="white"/>
<path d="M163.95 44.4639C163.95 43.2537 163.923 42.2492 163.95 41.2446C163.978 40.6184 163.77 40.3288 163.127 40.3848C162.58 40.4315 162.071 40.3848 162.071 39.6232C162.071 38.8616 162.553 38.7261 163.164 38.8008C163.775 38.8756 163.974 38.5952 163.941 38.0112C163.913 37.3757 163.941 36.7309 163.941 36.0954C163.941 35.3338 164.455 35.217 165.033 35.203C165.658 35.189 165.779 35.5908 165.774 36.1095V38.2121C165.774 38.6373 165.941 38.8195 166.371 38.8055C167.098 38.7821 167.829 38.8055 168.556 38.7821C169.13 38.7635 169.375 39.0158 169.384 39.5952C169.393 40.1746 169.116 40.4082 168.551 40.3942C167.857 40.3755 167.153 40.4129 166.459 40.3755C165.936 40.3521 165.769 40.5857 165.774 41.0857C165.788 43.0341 165.76 44.9826 165.792 46.9404C165.806 47.8515 166.186 48.1272 167.065 47.9964C167.463 47.9636 167.838 47.8515 168.185 47.6506C168.889 47.1833 169.287 47.5431 169.602 48.1506C169.949 48.8281 169.416 48.9869 168.981 49.1972C168.07 49.6271 167.144 49.9448 166.112 49.8794C164.941 49.7999 164.265 49.2486 164.052 48.0898C163.83 46.8236 164.006 45.5293 163.95 44.4546V44.4639Z" fill="white"/>
<path d="M128.562 40.1508V48.5567C128.562 49.2015 128.428 49.608 127.678 49.622C126.896 49.6453 126.706 49.2575 126.706 48.5473C126.724 42.945 126.724 37.3426 126.706 31.7449C126.706 31.1095 126.812 30.6889 127.585 30.6843C128.358 30.6749 128.566 31.0347 128.557 31.7543C128.557 34.5531 128.557 37.3566 128.557 40.1555L128.562 40.1508Z" fill="white"/>
<path d="M57.1187 9.66277C57.3454 9.1815 57.8268 8.93385 58.1461 8.52734C59.618 9.76556 60.7427 11.2935 61.784 12.8821C65.2136 18.0686 66.7965 23.7925 66.6022 30.0116C66.6022 30.3153 66.5327 30.6144 66.4957 30.9134C65.931 30.1845 65.2877 29.507 64.9359 28.6239C65.0239 25.5914 64.4037 22.6804 63.4271 19.8395C62.1034 15.9613 59.9142 12.6205 57.1187 9.66277Z" fill="white"/>
<path d="M42.4651 19.7043C39.6187 22.0592 36.7676 24.4001 33.9304 26.7738C33.4445 27.1756 33.0418 27.3392 32.4077 27.0261C30.6998 26.1757 28.8485 25.9047 26.9509 25.9187C24.7663 25.9327 22.5817 25.9187 20.3971 25.9187C20.1194 25.9187 19.8001 26.0355 19.4761 25.7505C20.7859 24.6525 22.068 23.5544 23.3685 22.4844C27.6174 18.966 31.8662 15.4616 36.1104 11.9525C36.2677 11.8217 36.402 11.6301 36.6473 11.6395C38.4107 14.0505 40.1833 16.4569 41.9467 18.8632C42.1504 19.1249 42.3031 19.4239 42.4697 19.7089L42.4651 19.7043Z" fill="white"/>
<path d="M110.886 5.69559C105.346 5.68625 101.167 10.1485 101.259 15.5312C101.106 20.7411 105.267 25.3996 110.983 25.3482C116.213 25.3062 120.652 21.2177 120.573 15.4331C120.495 9.83077 116.274 5.69092 110.886 5.69092V5.69559ZM110.9 21.0215C107.947 21.0215 105.462 18.531 105.466 15.578C105.466 15.3911 105.476 15.2042 105.494 15.0219C105.786 12.2698 108.179 10.0317 110.946 10.0457C113.719 10.0457 116.311 12.6062 116.338 15.3911C116.371 18.4796 113.922 21.0215 110.9 21.0215Z" fill="white"/>
<path d="M157.517 24.1711C157.318 23.7926 157.17 23.4001 156.985 23.017C154.471 17.5268 151.958 12.0366 149.445 6.54635C149.264 6.14919 149.093 5.7053 148.607 5.69595C148.149 5.68661 148.01 6.10714 147.83 6.47626C145.21 12.1347 142.604 17.7978 140.008 23.4562C139.263 25.0776 139.309 25.129 141.142 25.129C143.882 25.1196 143.53 25.4046 144.65 22.8394C144.858 22.3628 145.131 22.218 145.613 22.2273C146.603 22.2554 147.598 22.2367 148.584 22.2367L148.593 22.26C149.102 22.26 149.625 22.3348 150.121 22.246C151.745 21.9563 152.759 22.5264 153.175 24.1758C153.296 24.6384 153.578 25.1009 154.166 25.1103C155.11 25.129 156.05 25.1617 156.985 25.1009C157.489 25.0682 157.836 24.7785 157.521 24.1711H157.517ZM150.116 18.5314C149.579 18.5641 149.051 18.5828 148.505 18.6108C146.506 18.5687 146.515 18.5687 147.316 16.7932C147.64 16.0783 147.941 15.3634 148.255 14.6485C148.339 14.4663 148.427 14.3308 148.528 14.3074C148.626 14.2794 148.737 14.3541 148.848 14.5924C149.403 15.7606 149.954 16.9287 150.491 18.1062C150.648 18.4566 150.389 18.522 150.125 18.536L150.116 18.5314Z" fill="white"/>
<path d="M23.0678 35.6372C20.6565 37.6511 18.2405 39.665 15.843 41.7022C15.2459 42.2115 14.5702 41.9265 13.9361 42.0246C12.2838 39.1416 11.2655 36.0438 10.8906 32.7356C12.7744 31.1703 14.6627 29.605 16.5465 28.0444C16.7686 27.8575 16.9353 27.5585 17.2963 27.6099C17.375 27.736 17.4444 27.8715 17.5369 27.993C19.379 30.5395 21.2211 33.0907 23.0678 35.6372Z" fill="white"/>
<path d="M23.0677 35.6371C21.221 33.0906 19.3789 30.5394 17.5275 27.9929C17.4396 27.8714 17.3702 27.7359 17.2915 27.6097C17.7821 27.3995 18.3005 27.507 18.8003 27.507C21.4061 27.4883 24.0119 27.5256 26.6176 27.4836C30.8433 27.4228 34.1295 29.1423 36.5779 32.5907C38.6791 35.5437 40.8498 38.4547 42.9881 41.389C43.0761 41.5058 43.1362 41.632 43.3029 41.903H42.4142C37.809 41.903 33.2038 41.903 28.5986 41.9123C28.0524 41.9544 27.6266 41.7441 27.3212 41.2815C25.9095 39.4032 24.6321 37.408 23.0723 35.6371H23.0677Z" fill="white"/>
</g>
<defs>
<clipPath id="clip0_754_4173">
<rect width="202" height="58" fill="white"/>
</clipPath>
</defs>
</svg>
