<svg width="208" height="58" viewBox="0 0 208 58" fill="none" xmlns="http://www.w3.org/2000/svg">
<path d="M68.4695 30.9133C70.7193 33.9285 72.973 36.9437 75.2266 39.9589C76.0828 41.0994 76.9505 42.24 77.8258 43.3881C77.534 43.7307 77.1655 43.5688 76.8545 43.5688C73.0805 43.5801 69.3065 43.5688 65.5287 43.5801C65.1908 43.5801 64.8414 43.5199 64.5151 43.6667C63.8394 43.5274 63.1637 43.5425 62.4956 43.7043C62.0695 43.5425 61.7163 43.2865 61.436 42.9251C56.5448 36.4355 51.6382 29.9609 46.7124 23.4938C45.7372 22.214 44.8811 20.8363 43.7293 19.6919C43.5488 19.4096 43.3914 19.1122 43.1918 18.8487C41.3797 16.4433 39.5598 14.0379 37.7285 11.6326C37.8744 11.5912 38.0241 11.5648 38.1777 11.546C41.4833 11.546 44.7851 11.4895 48.0869 11.5573C51.8148 11.6326 54.8862 13.0893 57.1399 16.033C59.8043 19.53 62.4304 23.0534 65.1063 26.5429C65.6515 27.2581 66.0508 28.1051 66.8532 28.6208C67.2256 29.4979 67.886 30.1755 68.4619 30.9057L68.4695 30.9133Z" fill="#003AFF"/>
<path d="M136.451 20.9453C137.638 21.0695 138.739 20.5914 139.734 19.8913C140.244 19.5224 140.594 19.5073 141.009 19.9703C141.6 20.6328 142.218 21.2728 142.821 21.924C143.212 22.3494 142.913 22.643 142.606 22.9215C140.628 24.7133 138.275 25.4323 135.603 25.3269C130.977 25.1462 127.398 21.7546 126.385 17.9489C125.198 13.4581 127.863 8.13916 132.336 6.45652C135.895 5.11644 139.219 5.49663 142.272 7.76273C143.193 8.4516 143.182 8.69628 142.391 9.49807L142.325 9.56206C141.765 10.1229 141.281 10.8683 140.598 11.2108C139.788 11.6098 139.323 10.5558 138.59 10.3225C136.693 9.71264 134.862 9.59218 133.188 10.8043C131.349 12.1293 130.666 13.9889 130.888 16.1684C131.157 18.8561 133.556 21.1598 136.447 20.949L136.451 20.9453Z" fill="#003AFF"/>
<path d="M17.96 49.4145C15.7448 47.5023 14.1553 45.127 12.7118 42.6576C12.5735 42.4205 12.4852 42.1608 12.2395 41.9989C11.1377 39.4542 10.1932 36.8569 9.61731 34.1466C9.48678 32.208 9.16812 30.2882 9.24106 28.3345C9.46758 21.7018 11.6137 15.7768 15.9483 10.6423C20.9163 4.75498 27.2741 1.19773 35.0294 0.256655C44.4587 -0.880162 52.6862 1.75861 59.5815 8.19178C59.689 8.30095 59.7889 8.41388 59.8848 8.53057C59.5547 8.93335 59.0594 9.18556 58.8252 9.66362C52.2754 3.52406 44.5009 0.806241 35.4709 1.82636C28.7561 2.58299 23.1008 5.48526 18.4553 10.2772C15.3417 13.458 13.1802 17.1621 11.9669 21.4044C10.9035 25.116 10.4658 28.8954 11.2183 32.7387C11.6099 36.0438 12.6503 39.1418 14.355 42.0252C14.6276 42.5297 14.8809 43.0416 15.1766 43.531C16.2516 45.3039 17.6836 46.8097 19.0312 48.3718L17.9639 49.4145H17.96Z" fill="#003AFF"/>
<path d="M90.0461 15.5394C90.0461 12.7049 90.0691 9.86281 90.0269 7.0396C90.0192 6.24533 90.288 5.99312 91.1019 6.00065C94.6187 6.03829 98.1354 6.027 101.656 6.00065C102.236 6.00065 102.52 6.14746 102.497 6.7648C102.47 7.51766 102.497 8.27428 102.52 9.03091C102.547 9.73106 102.224 9.9908 101.502 9.97951C99.5291 9.94186 97.548 9.96821 95.5746 9.94939C94.3 9.9381 94.3 9.91928 94.3 11.1954C94.3 11.8353 94.3307 12.4752 94.2923 13.1152C94.2539 13.7551 94.5457 13.9659 95.1715 13.9584C96.8378 13.932 98.5117 13.9584 100.178 13.932C100.927 13.9207 101.276 14.1428 101.188 14.9408C101.122 15.577 101.122 16.2169 101.188 16.8569C101.276 17.6925 100.976 18.02 100.097 17.9937C98.4464 17.9523 96.7878 18.0125 95.137 17.9673C94.4651 17.956 94.2808 18.1932 94.2962 18.8143C94.3269 20.5798 94.2962 22.349 94.3154 24.122C94.3269 24.8522 94.0466 25.1872 93.2672 25.1345C92.6798 25.0931 92.0847 25.1345 91.4935 25.1345C90.0922 25.1345 90.0538 25.1007 90.0538 23.7681C90.0499 21.0202 90.0499 18.2798 90.0499 15.5356L90.0461 15.5394Z" fill="#003AFF"/>
<path d="M89.8657 40.1508V31.9258C89.8657 30.8041 89.9655 30.71 91.0712 30.71C93.3211 30.71 95.5593 30.7025 97.8053 30.7288C100.616 30.7589 102.616 32.7841 103.253 34.719C104.171 37.4744 102.739 40.0266 100.669 41.3592C99.5138 42.0894 99.5253 42.0744 100.228 43.3279C101.192 45.0557 102.124 46.8061 103.065 48.5377C103.457 49.2717 103.234 49.5503 102.389 49.6519C101.341 49.7874 100.815 49.2868 100.401 48.4398C99.5138 46.6103 98.554 44.796 97.6671 42.959C97.4022 42.4094 97.0797 42.1948 96.4577 42.2249C95.3328 42.2814 94.2079 42.2814 93.083 42.2249C92.2768 42.1835 91.9696 42.4245 91.9927 43.2451C92.0503 45.0068 91.985 46.776 92.0311 48.5414C92.0541 49.3282 91.77 49.6481 90.9676 49.6519C90.1652 49.6594 89.8427 49.3432 89.8504 48.5565C89.8811 45.7559 89.8696 42.9552 89.8696 40.1508H89.8657ZM92.0656 36.5823C92.0656 37.6175 92.0886 38.6489 92.0656 39.6916C92.0464 40.2336 92.223 40.4746 92.8066 40.467C94.3999 40.4369 95.9932 40.4896 97.5788 40.4331C98.0817 40.4068 98.5578 40.2901 99.0185 40.0868C99.4792 39.8836 99.8824 39.605 100.232 39.2512C100.585 38.9011 100.858 38.4983 101.053 38.0428C101.249 37.5873 101.349 37.1168 101.36 36.6237C101.372 36.1343 101.295 35.66 101.122 35.197C100.946 34.734 100.689 34.3237 100.351 33.9586C100.013 33.5934 99.6175 33.3036 99.1644 33.0928C98.7114 32.882 98.2353 32.7615 97.7324 32.7276C96.0815 32.6298 94.4229 32.6975 92.7682 32.6787C92.2614 32.6787 92.0541 32.8782 92.0694 33.3939C92.081 34.4366 92.0656 35.5057 92.0656 36.5785V36.5823Z" fill="#2A2727"/>
<path d="M164.536 15.5701C164.536 12.7657 164.563 9.96886 164.524 7.16446C164.513 6.29867 164.789 5.9373 165.703 6.00882C166.451 6.05776 167.204 6.05776 167.953 6.00882C168.671 5.97494 168.951 6.24597 168.947 6.96495C168.924 11.3089 168.947 15.6567 168.909 19.9969C168.909 20.8928 169.185 21.1676 170.083 21.1337C171.734 21.0773 173.393 21.1413 175.044 21.1074C175.862 21.0848 176.157 21.4198 176.149 22.1877C176.138 25.6885 176.353 25.0787 173.258 25.1164C170.821 25.1427 168.383 25.1164 165.949 25.1164C164.647 25.1164 164.547 25.0185 164.54 23.78V15.5664L164.536 15.5701Z" fill="#003AFF"/>
<path d="M143.255 40.098V32.0537C143.255 30.7286 143.278 30.7136 144.587 30.7136C147.7 30.7136 150.822 30.7324 153.935 30.7061C154.65 30.7061 155.179 30.7475 155.156 31.6321C155.133 32.5129 154.542 32.543 153.874 32.5355C151.34 32.528 148.814 32.5543 146.291 32.5167C145.554 32.5054 145.297 32.7275 145.324 33.454C145.378 35.0726 145.408 36.7026 145.358 38.325C145.335 38.9687 145.543 39.1117 146.138 39.108C148.322 39.0854 150.507 39.1192 152.699 39.0891C153.429 39.0816 153.801 39.2736 153.816 40.0566C153.828 40.8734 153.321 40.9186 152.718 40.9186C150.565 40.9186 148.407 40.9299 146.253 40.9111C145.597 40.9111 145.316 41.0729 145.335 41.7919C145.397 43.5348 145.397 45.2776 145.358 47.0205C145.347 47.6905 145.612 47.8562 146.226 47.8524C148.752 47.8261 151.286 47.8298 153.809 47.8185C154.469 47.8185 155.168 47.7056 155.168 48.7144C155.168 49.7233 154.534 49.6254 153.839 49.6254C150.722 49.6141 147.601 49.6179 144.468 49.6254C143.366 49.6254 143.255 49.5388 143.251 48.4246V40.098H143.255Z" fill="#2A2727"/>
<path d="M17.9601 49.4145L19.0274 48.3718C19.4036 48.4885 19.611 48.816 19.8836 49.0606C24.794 53.4573 30.5874 55.9869 37.2102 56.2617C47.9793 56.7172 56.4411 52.456 62.4994 43.7153C63.1713 43.5497 63.8432 43.5384 64.5189 43.6815C60.0461 50.8336 53.6729 55.4825 45.2726 57.2818C37.3676 58.972 29.9309 57.6696 23.0548 53.4762C21.1851 52.328 19.3921 51.0858 17.9601 49.4145Z" fill="#2A2727"/>
<path d="M203.715 44.6528H200.525C199.611 44.6528 199.423 44.9991 199.826 45.8725C200.79 47.9391 203.017 48.7333 205.147 47.7697C205.385 47.6906 205.608 47.5852 205.808 47.4459C206.495 46.8549 206.779 47.4234 207.105 47.8525C207.489 48.3644 207.117 48.5865 206.729 48.85C204.165 50.5402 200.717 50.1751 198.924 48.0106C197.054 45.7407 197.258 41.856 199.415 39.8985C201.066 38.4116 203.005 38.1557 205.067 38.9386C206.879 39.6313 208 41.4005 208 43.4219C208 44.5211 207.862 44.6453 206.702 44.6491H203.712L203.715 44.6528ZM202.852 43.1923V43.1998C203.719 43.1998 204.591 43.2111 205.458 43.1998C205.854 43.1998 206.207 43.1659 206.046 42.5712C205.67 41.2311 204.41 40.1921 203.009 40.162C201.646 40.1282 200.114 41.1897 199.726 42.4281C199.538 42.9965 199.726 43.2149 200.341 43.1998C201.17 43.1697 202.015 43.181 202.855 43.181V43.1885L202.852 43.1923Z" fill="#2A2727"/>
<path d="M111.6 44.6527H108.413C107.472 44.6527 107.38 44.7995 107.691 45.6728C108.455 47.8072 110.878 48.7558 113.062 47.7733C113.354 47.6642 113.631 47.5211 113.892 47.3555C114.502 46.8962 114.702 47.4308 114.99 47.7507C115.343 48.1309 115.232 48.4471 114.852 48.7558C113.324 49.9792 110.267 50.2992 108.463 49.3054C106.236 48.0782 105.453 46.0681 105.633 43.6778C105.802 41.4455 106.839 39.7064 109.043 38.8708C112.583 37.5269 116.13 40.0678 115.927 43.738C115.892 44.3553 115.673 44.6904 114.963 44.6565C113.842 44.6264 112.721 44.6565 111.596 44.6565L111.6 44.6527ZM110.759 43.1922V43.1846C111.596 43.1846 112.437 43.1583 113.274 43.1922C114.018 43.2223 114.103 42.8835 113.903 42.2925C113.489 41.0729 112.13 40.0942 110.855 40.1469C109.477 40.1958 108.01 41.246 107.653 42.4054C107.48 42.9626 107.653 43.1997 108.248 43.1959C109.085 43.1884 109.922 43.1959 110.759 43.1959V43.1922Z" fill="#2A2727"/>
<path d="M185.271 45.4658V48.6617C185.271 49.0871 185.187 49.4786 184.692 49.5727C184.193 49.6705 183.851 49.5538 183.667 49.0381C183.436 48.3794 183.129 48.8311 182.837 49.0156C181.578 49.8249 180.254 50.2164 178.783 49.599C177.27 48.9666 176.71 47.7696 176.744 46.2375C176.783 44.7355 177.539 43.7117 178.937 43.1244C180.158 42.62 181.428 42.6238 182.688 42.9212C183.248 43.0567 183.409 42.9212 183.436 42.3716C183.525 40.8433 182.776 40.0866 181.213 40.1883C180.349 40.2447 179.474 40.3238 178.664 40.6551C178.104 40.8847 177.865 40.6362 177.708 40.1544C177.551 39.665 177.578 39.3112 178.13 39.1305C179.716 38.6073 181.332 38.325 183.002 38.6562C184.189 38.8858 184.788 39.7065 185.018 40.8019C185.348 42.3603 185.26 43.9149 185.271 45.4696V45.4658ZM183.429 45.6691C183.394 45.2249 183.628 44.585 182.933 44.3968C181.908 44.1257 180.841 43.9902 179.816 44.3968C178.929 44.7468 178.476 45.4244 178.476 46.3881C178.476 47.2915 178.971 47.8863 179.777 48.1949C181.352 48.7972 183.444 47.3517 183.429 45.6691Z" fill="#2A2727"/>
<path d="M126.623 45.2099C126.623 46.4635 126.604 47.5589 126.623 48.6543C126.634 49.0909 126.604 49.4674 126.101 49.5878C125.675 49.6857 125.302 49.6292 125.129 49.1361C124.918 48.5451 124.634 48.7371 124.239 49.0232C122.68 50.1336 120.714 50.1939 119.466 49.2189C118.272 48.2816 117.858 46.8022 118.342 45.1798C118.706 43.9527 120.092 42.9062 121.57 42.8008C122.469 42.7406 123.379 42.6728 124.262 42.9627C124.565 43.0605 124.788 43.0605 124.876 42.6728C125.191 41.2612 124.315 40.162 122.845 40.2185C121.947 40.2524 121.041 40.2863 120.2 40.6702C119.72 40.881 119.347 40.7907 119.159 40.2637C118.975 39.7367 118.987 39.3264 119.639 39.108C121.041 38.6224 122.484 38.4493 123.966 38.5886C125.39 38.7354 126.247 39.5748 126.485 40.9902C126.738 42.4394 126.561 43.9075 126.623 45.2137V45.2099ZM124.861 45.8725C124.861 45.2137 125.049 44.5361 124.17 44.3442C123.29 44.1522 122.377 44.0468 121.497 44.3065C120.726 44.5324 120.134 44.9803 119.966 45.8386C119.8 46.6479 119.935 47.3782 120.614 47.8864C121.524 48.5639 122.526 48.3418 123.436 47.8864C124.266 47.4685 125.114 46.9754 124.861 45.8762V45.8725Z" fill="#2A2727"/>
<path d="M9.60585 34.1504C10.1856 36.8569 11.1262 39.458 12.2281 42.0027H0.241874C0.199642 42.0027 0.153571 41.9349 0 41.8183L9.60585 34.1542V34.1504Z" fill="#2A2727"/>
<path d="M189.813 44.382C189.813 43.3468 189.786 42.3116 189.825 41.2727C189.852 40.5838 189.564 40.3241 188.884 40.3956C188.301 40.4558 187.821 40.3768 187.851 39.6126C187.875 39.0555 188.078 38.7092 188.685 38.7958C189.633 38.9313 189.906 38.5059 189.821 37.659C189.767 37.1432 189.821 36.6238 189.81 36.1043C189.786 35.4154 190.197 35.2122 190.812 35.1858C191.499 35.1595 191.649 35.5547 191.641 36.1231C191.622 36.7894 191.675 37.4632 191.641 38.1333C191.606 38.6301 191.825 38.7995 192.282 38.7958C193.031 38.7958 193.783 38.8071 194.532 38.7845C195.131 38.7619 195.407 39.0442 195.399 39.5938C195.392 40.1434 195.135 40.437 194.536 40.4182C193.818 40.3918 193.104 40.437 192.386 40.3918C191.852 40.3617 191.637 40.5612 191.637 41.0619C191.645 43.008 191.637 44.9542 191.66 46.9078C191.672 47.8376 192.098 48.1312 193.054 47.9618C193.434 47.9279 193.787 47.815 194.113 47.6306C194.824 47.1487 195.238 47.5063 195.572 48.1162C195.983 48.8464 195.373 49.0271 194.904 49.2266C193.933 49.6558 192.931 49.9757 191.84 49.8816C190.716 49.7837 189.967 49.1287 189.894 48.0296C189.825 46.8175 189.882 45.5978 189.882 44.3782H189.806L189.813 44.382Z" fill="#2A2727"/>
<path d="M161.407 49.9002C160.163 49.9002 159.042 49.5351 158.044 48.8161C157.448 48.402 157.721 48.0143 158.005 47.5776C158.289 47.1447 158.589 47.1598 158.992 47.4609C159.579 47.8788 160.232 48.1536 160.95 48.2778C161.81 48.4585 162.797 48.0557 163.058 47.4572C163.353 46.7796 163.004 46.0682 162.063 45.5336C161.1 44.984 160.063 44.5286 159.157 43.9037C157.414 42.7029 157.145 40.8508 158.42 39.522C158.934 38.9988 159.568 38.6901 160.309 38.6111C161.522 38.4191 162.674 38.6036 163.764 39.1607C164.229 39.3978 164.605 39.6877 164.294 40.3126C164.002 40.8885 163.603 41.0692 163.019 40.7643C162.313 40.3916 161.568 40.2335 160.769 40.2824C160.274 40.3088 159.833 40.497 159.645 40.9751C159.441 41.487 159.633 41.9312 160.048 42.2813C160.846 42.9438 161.844 43.2449 162.739 43.7343C163.703 44.2613 164.636 44.8184 165.004 45.9213C165.607 47.7508 164.255 49.5727 162.098 49.8739C161.867 49.8964 161.637 49.904 161.411 49.904L161.407 49.9002Z" fill="#2A2727"/>
<path d="M168.82 44.4684C168.82 43.2563 168.793 42.255 168.82 41.2499C168.847 40.6213 168.636 40.3314 167.972 40.3879C167.407 40.4368 166.885 40.3879 166.885 39.6275C166.885 38.8671 167.381 38.7316 168.01 38.8069C168.64 38.8822 168.843 38.6036 168.813 38.0164C168.782 37.3802 168.813 36.7365 168.813 36.1004C168.813 35.34 169.342 35.2233 169.937 35.2082C170.582 35.1969 170.705 35.596 170.701 36.1154V38.2159C170.701 38.6413 170.874 38.822 171.316 38.8069C172.064 38.7843 172.817 38.8069 173.566 38.7843C174.157 38.7655 174.406 39.0177 174.418 39.5974C174.426 40.1771 174.141 40.4105 173.562 40.3992C172.848 40.3804 172.122 40.418 171.408 40.3804C170.87 40.3578 170.698 40.5912 170.701 41.0881C170.713 43.0342 170.69 44.9841 170.721 46.9453C170.732 47.8563 171.128 48.1311 172.03 47.9993C172.441 47.9654 172.825 47.8525 173.182 47.653C173.903 47.1862 174.314 47.5438 174.641 48.1536C174.998 48.8312 174.452 48.9893 173.999 49.2001C173.059 49.6292 172.107 49.9492 171.043 49.8852C169.838 49.8062 169.143 49.2528 168.92 48.0934C168.69 46.8248 168.87 45.5337 168.813 44.4609L168.82 44.4684Z" fill="#2A2727"/>
<path d="M132.382 40.1548V48.5605C132.382 49.2042 132.244 49.6107 131.472 49.6258C130.666 49.6484 130.47 49.2606 130.47 48.5529C130.489 42.9517 130.489 37.3504 130.47 31.7491C130.47 31.113 130.581 30.6951 131.376 30.6876C132.171 30.6801 132.386 31.0377 132.378 31.7567C132.382 34.5573 132.382 37.3579 132.382 40.1586V40.1548Z" fill="#2A2727"/>
<path d="M58.8137 9.66381C59.0479 9.18198 59.5432 8.93354 59.8734 8.53076C61.386 9.76921 62.5455 11.2975 63.6205 12.886C67.1488 18.0732 68.7843 23.795 68.5808 30.0173C68.5808 30.3185 68.5117 30.6196 68.4695 30.917C67.8859 30.1867 67.2256 29.5129 66.8647 28.6283C66.9568 25.5943 66.3195 22.6845 65.3098 19.8425C63.9468 15.9615 61.6932 12.6225 58.8137 9.66381Z" fill="#2A2727"/>
<path d="M43.7254 19.707C40.7961 22.0597 37.859 24.4048 34.9373 26.7763C34.4382 27.1791 34.0236 27.3447 33.3709 27.0285C31.6087 26.1778 29.7044 25.9068 27.7502 25.9218C25.5004 25.9331 23.2506 25.9218 21.0008 25.9218C20.7128 25.9218 20.3865 26.0385 20.0525 25.7524C21.4039 24.6533 22.7208 23.5541 24.0568 22.485C28.4336 18.9692 32.8065 15.4609 37.1795 11.9526C37.3445 11.8246 37.4789 11.6288 37.7323 11.6401C39.5483 14.0493 41.3719 16.4584 43.1879 18.8638C43.3952 19.1273 43.5526 19.4247 43.7254 19.707Z" fill="#2A2727"/>
<path d="M114.18 5.6963C108.475 5.68877 104.175 10.1457 104.267 15.5324C104.109 20.7422 108.39 25.3986 114.284 25.3534C119.67 25.3083 124.243 21.224 124.158 15.4383C124.078 9.83702 119.728 5.6963 114.184 5.6963H114.18ZM114.191 21.0207C111.151 21.0207 108.594 18.5288 108.598 15.5738C108.598 15.3856 108.609 15.2011 108.628 15.0167C108.928 12.265 111.389 10.029 114.241 10.0403C117.098 10.0403 119.766 12.6 119.793 15.3856C119.827 18.4723 117.305 21.017 114.195 21.017L114.191 21.0207Z" fill="#003AFF"/>
<path d="M162.198 24.1748C161.994 23.7984 161.841 23.4031 161.652 23.0192C159.061 17.5308 156.477 12.035 153.886 6.54663C153.701 6.14762 153.525 5.70719 153.022 5.6959C152.549 5.68837 152.407 6.10621 152.219 6.47511C149.524 12.1328 146.837 17.7943 144.165 23.4596C143.397 25.082 143.447 25.1347 145.335 25.1347C148.154 25.1272 147.793 25.4133 148.948 22.846C149.163 22.3717 149.444 22.2249 149.943 22.2362C150.96 22.2625 151.985 22.2437 153.006 22.2437L153.014 22.2663C153.54 22.2663 154.078 22.3416 154.584 22.255C156.258 21.9652 157.302 22.5373 157.729 24.1861C157.852 24.6491 158.143 25.1121 158.746 25.1196C159.717 25.1385 160.689 25.1723 161.649 25.1121C162.171 25.0782 162.528 24.7922 162.201 24.1823L162.198 24.1748ZM154.577 18.5359C154.024 18.5698 153.482 18.5886 152.918 18.6149H152.914C150.853 18.5735 150.864 18.5735 151.689 16.7968C152.024 16.0816 152.334 15.3664 152.657 14.6511C152.741 14.4667 152.834 14.3349 152.937 14.3086C153.041 14.2785 153.148 14.3575 153.267 14.5947C153.839 15.7616 154.404 16.9323 154.957 18.1068C155.122 18.4568 154.849 18.5208 154.58 18.5359H154.577Z" fill="#003AFF"/>
<path d="M23.7535 35.6413C21.2695 37.6589 18.7816 39.6691 16.3168 41.7056C15.7025 42.2175 15.0076 41.9314 14.3549 42.0255C12.6503 39.1421 11.606 36.0441 11.2183 32.739C13.1609 31.1731 15.0998 29.6071 17.0424 28.0449C17.2728 27.8605 17.4456 27.5594 17.8141 27.6121C17.8947 27.7363 17.9677 27.8756 18.0598 27.996C19.9564 30.5444 21.853 33.0929 23.7573 35.6413H23.7535Z" fill="#2A2727"/>
<path d="M23.7537 35.641C21.8532 33.0925 19.9566 30.5441 18.0485 27.9957C17.9602 27.8752 17.8834 27.7397 17.8066 27.6117C18.3096 27.4009 18.8432 27.5063 19.3615 27.5063C22.0452 27.4875 24.725 27.5252 27.4086 27.4837C31.7585 27.4235 35.1409 29.1438 37.6672 32.5919C39.8287 35.5469 42.067 38.4567 44.2669 41.389C44.3552 41.5057 44.4204 41.63 44.5894 41.9047H43.6756C38.9341 41.9047 34.1888 41.9047 29.4473 41.9123C28.8829 41.9537 28.4452 41.7429 28.1343 41.2799C26.6792 39.4015 25.3623 37.4027 23.7575 35.6334L23.7537 35.641Z" fill="#003AFF"/>
</svg>
